<svg version="1.0" xmlns="http://www.w3.org/2000/svg" width="1380.000000pt" height="1380.000000pt" viewBox="0 0 1380.000000 1380.000000" preserveAspectRatio="xMidYMid meet">

<g transform="translate(0.000000,1380.000000) scale(0.100000,-0.100000)" fill="#6dc600" stroke="none">
<path d="M9093 10634 c-67 -33 -425 -359 -496 -452 -131 -170 -221 -334 -271 -491 -50 -159 -58 -233 -55 -516 4 -356 2 -386 -22 -484 -29 -118 -47 -153 -89 -173 -19 -9 -84 -39 -144 -68 -132 -61 -239 -130 -371 -239 -120 -99 -182 -169 -280 -316 -88 -131 -145 -249 -177 -365 -21 -77 -23 -105 -23 -315 0 -187 3 -241 17 -290 9 -32 16 -61 14 -63 -9 -9 -110 222 -161 368 -69 197 -96 256 -171 373 -117 182 -275 318 -429 369 -275 91 -562 96 -764 14 -160 -65 -316 -212 -436 -411 -36 -61 -45 -115 -22 -132 45 -36 74 -16 145 101 93 152 186 242 317 307 103 51 201 71 345 71 174 0 375 -50 496 -123 163 -99 305 -313 408 -615 96 -282 137 -356 342 -611 211 -265 251 -309 336 -378 182 -145 361 -221 616 -260 l112 -17 -20 -32 c-12 -17 -35 -58 -51 -91 l-29 -60 0 -340 c0 -187 -3 -485 -7 -662 l-6 -323 -43 0 -43 0 -628 617 c-933 918 -958 942 -997 958 -19 8 -64 15 -99 15 -35 0 -85 3 -111 6 l-48 7 69 22 c92 29 136 53 232 125 243 184 380 415 381 642 0 58 -3 69 -22 82 -32 23 -65 20 -82 -6 -8 -13 -24 -76 -35 -142 -24 -146 -55 -212 -148 -319 -180 -205 -359 -284 -623 -274 -213 9 -362 64 -486 179 -74 70 -110 116 -203 263 -142 223 -193 275 -276 275 -69 0 -124 -47 -216 -185 -67 -101 -210 -250 -313 -327 -100 -74 -274 -160 -386 -190 -116 -30 -272 -30 -385 1 -161 43 -256 102 -400 246 -124 124 -188 227 -276 447 l-41 103 5 205 c6 230 16 296 79 490 73 228 129 318 316 508 266 272 533 395 825 379 218 -11 379 -96 467 -246 99 -169 197 -195 261 -68 19 37 21 53 17 196 -4 141 -7 162 -30 219 -32 74 -104 195 -163 272 -46 60 -91 140 -104 188 -18 60 28 91 208 141 138 39 179 59 215 106 40 52 101 186 131 290 46 158 27 203 -120 277 -114 58 -129 70 -205 172 -121 163 -181 206 -285 206 -62 0 -68 7 -81 91 -6 34 -1 51 35 120 47 90 50 122 10 127 -29 3 -81 -34 -219 -157 -221 -199 -301 -284 -389 -416 -102 -152 -130 -209 -182 -363 -66 -194 -71 -238 -67 -614 3 -313 2 -336 -17 -387 l-20 -55 -80 -31 c-177 -69 -255 -123 -415 -284 -237 -238 -335 -389 -416 -636 -92 -281 -117 -452 -95 -660 35 -323 164 -600 359 -768 80 -69 222 -167 305 -208 32 -17 56 -33 53 -36 -3 -3 -43 -11 -90 -18 -151 -22 -263 -91 -322 -197 l-29 -53 0 -913 c0 -800 2 -914 15 -923 23 -16 509 -7 519 10 5 7 10 372 13 812 4 623 8 802 18 814 22 27 55 16 117 -37 33 -29 384 -373 779 -765 395 -391 742 -730 769 -753 100 -82 87 -80 427 -80 173 0 319 4 339 10 36 10 105 74 145 135 18 28 19 61 24 757 5 664 6 729 22 744 15 15 21 15 49 4 19 -8 302 -285 708 -693 661 -665 893 -890 955 -928 17 -11 49 -24 71 -30 50 -14 557 -13 639 1 71 11 100 36 147 124 l33 61 7 830 c6 810 6 832 28 915 12 47 32 103 44 125 24 42 23 42 167 108 221 102 468 367 559 601 47 120 61 198 61 352 0 95 -3 115 -19 135 l-19 24 -472 0 c-460 0 -472 0 -486 -20 -23 -31 -14 -68 21 -85 25 -13 92 -15 408 -16 323 0 380 -3 393 -15 13 -14 13 -26 -6 -110 -63 -285 -127 -409 -289 -561 -126 -119 -227 -178 -423 -246 -174 -62 -485 -82 -640 -43 -202 52 -403 192 -517 359 -83 124 -164 314 -208 492 -22 88 -27 129 -27 250 -1 128 3 157 27 245 34 124 116 290 205 415 125 175 372 403 538 496 106 59 324 154 389 169 143 34 535 28 661 -10 75 -22 125 -63 210 -175 43 -55 81 -100 85 -100 25 0 42 56 47 148 9 193 -38 317 -201 537 -32 44 -72 106 -88 137 -59 117 -38 139 197 203 126 34 167 56 205 108 70 94 149 308 149 402 0 73 -30 106 -157 172 -105 55 -126 74 -192 168 -53 75 -126 152 -165 172 -16 9 -64 21 -105 27 -67 10 -76 14 -82 36 -17 62 -9 108 31 185 43 82 49 109 24 119 -19 7 -13 9 -51 -10z m-60 -150 c-10 -28 -13 -61 -10 -87 4 -23 9 -60 12 -82 6 -38 4 -41 -40 -74 -54 -40 -67 -61 -67 -108 0 -54 30 -78 97 -78 46 0 58 4 84 29 28 27 31 35 31 93 l0 63 44 0 c59 0 98 -28 176 -130 96 -124 177 -203 227 -219 40 -13 89 -48 80 -57 -2 -2 -21 3 -43 12 -48 20 -211 33 -200 16 4 -7 31 -12 59 -12 29 0 85 -8 125 -18 60 -15 78 -24 99 -51 l26 -33 -17 -60 c-26 -93 -73 -209 -105 -260 -38 -60 -91 -90 -216 -122 -118 -31 -197 -67 -219 -101 -34 -52 -31 -94 13 -180 23 -43 50 -88 60 -99 29 -33 94 -134 140 -217 41 -76 62 -152 75 -271 7 -64 -1 -73 -26 -30 -50 83 -182 175 -313 220 -79 26 -82 27 -340 25 l-260 -2 -119 -40 c-66 -23 -120 -40 -121 -38 -1 1 8 47 21 102 22 94 24 119 24 438 0 368 5 411 60 579 63 187 171 366 314 516 84 88 332 322 341 322 2 0 -3 -21 -12 -46z m-4509 -23 c-14 -47 -14 -59 0 -124 l17 -72 -28 -19 c-16 -11 -43 -35 -60 -54 -53 -54 -42 -121 22 -148 45 -19 89 -8 131 31 32 30 34 37 34 94 0 61 0 61 29 61 71 0 125 -43 221 -176 75 -103 131 -154 201 -183 50 -20 61 -30 94 -84 44 -74 43 -82 -14 -228 -76 -193 -103 -219 -276 -265 -162 -43 -226 -82 -243 -148 -16 -61 7 -109 150 -320 31 -46 76 -121 100 -167 l43 -84 3 -137 c2 -76 1 -138 -4 -138 -4 0 -48 39 -98 88 -141 136 -252 199 -449 256 -150 44 -366 51 -556 20 -41 -7 -44 -6 -37 12 17 42 26 223 25 493 -2 312 2 348 61 522 40 120 85 206 182 350 73 108 103 142 272 300 105 98 192 177 193 175 1 -1 -5 -25 -13 -55z m4560 -257 c18 -48 -8 -94 -54 -94 -15 0 -33 6 -39 14 -10 12 -5 23 25 55 39 44 58 51 68 25z m-4506 -27 c11 -55 -30 -98 -74 -78 -33 14 -30 37 8 72 34 32 61 34 66 6z m551 -3526 c10 -10 59 -79 109 -153 104 -153 215 -268 339 -349 72 -47 214 -119 235 -119 5 0 25 -7 46 -16 l37 -15 -53 -18 c-99 -34 -198 -140 -213 -228 -4 -26 -9 -313 -10 -638 -1 -324 -4 -621 -8 -660 -6 -69 -6 -70 -37 -73 -40 -4 -100 46 -239 197 -55 60 -266 271 -470 468 -646 626 -911 891 -900 901 6 5 41 15 78 21 133 23 312 89 405 151 141 92 360 299 455 430 77 107 94 120 154 120 38 0 58 -5 72 -19z" fill="#6dc600"/>
<path d="M9541 9734 c-82 -28 -127 -49 -136 -64 -4 -6 8 -4 27 4 18 8 71 27 118 42 47 15 89 31 95 35 17 16 -29 9 -104 -17z" fill="#6dc600"/>
<path d="M9564 9615 c-49 -46 -84 -84 -79 -84 14 0 193 168 179 169 -6 0 -51 -38 -100 -85z" fill="#6dc600"/>
<path d="M4904 9851 c3 -4 34 -11 70 -15 35 -3 86 -13 112 -21 51 -15 68 -13 36 4 -56 30 -232 56 -218 32z" fill="#6dc600"/>
<path d="M5000 9716 c-74 -26 -126 -51 -135 -66 -9 -14 -9 -14 81 24 43 18 95 37 114 41 19 4 42 11 50 16 32 18 -47 8 -110 -15z" fill="#6dc600"/>
<path d="M5037 9599 c-45 -45 -68 -72 -52 -61 35 24 153 142 142 142 -4 0 -45 -36 -90 -81z" fill="#6dc600"/>
<path d="M10760 7999 c-244 -15 -298 -33 -500 -167 -52 -35 -112 -72 -133 -83 -21 -11 -49 -36 -63 -57 -116 -175 -135 -207 -154 -273 -12 -40 -31 -89 -41 -108 -14 -26 -19 -56 -19 -108 0 -39 -4 -83 -9 -96 -14 -37 3 -241 23 -272 9 -14 16 -45 16 -75 0 -42 5 -56 33 -87 19 -21 54 -70 80 -110 25 -39 89 -114 141 -167 53 -52 96 -99 96 -105 0 -15 54 -41 85 -41 36 0 75 -22 111 -63 22 -25 43 -37 70 -42 21 -3 57 -13 79 -20 117 -41 225 -76 265 -87 38 -11 -21 -13 -400 -20 -629 -10 -734 -21 -880 -90 -118 -57 -193 -155 -249 -328 -40 -121 -43 -182 -38 -660 5 -510 7 -520 79 -670 30 -63 58 -102 107 -151 116 -115 207 -165 421 -230 43 -13 206 -18 345 -11 33 2 200 1 370 -3 294 -7 609 2 840 24 272 26 554 233 622 456 16 55 18 106 18 575 0 466 -2 523 -19 595 -28 122 -59 178 -145 264 -127 126 -265 191 -449 211 -48 5 -102 12 -121 16 -33 6 -30 8 47 30 45 13 148 57 229 98 292 146 453 196 625 196 126 -1 165 -18 200 -91 14 -30 32 -74 39 -99 9 -29 22 -49 39 -57 70 -35 94 74 40 183 -37 76 -89 124 -166 155 -50 19 -78 23 -179 24 -185 0 -318 -40 -650 -198 -234 -112 -301 -130 -468 -130 -73 0 -132 4 -138 10 -13 13 39 34 147 62 97 24 134 38 134 50 0 15 98 81 121 81 51 0 99 49 99 101 0 24 52 76 95 94 55 24 95 89 95 155 0 23 4 50 10 60 16 29 60 302 60 369 0 33 -6 90 -14 128 -8 37 -17 89 -21 115 -4 29 -16 60 -31 78 -26 30 -104 182 -104 201 0 24 -41 66 -85 89 -25 13 -59 40 -75 59 -52 63 -71 80 -103 87 -18 3 -70 24 -117 44 -47 21 -104 43 -127 49 -23 6 -61 20 -85 31 -24 11 -52 19 -63 18 -11 -1 -72 -5 -135 -9z m-31 -247 c43 -72 113 -248 133 -331 9 -40 9 -53 -2 -66 -18 -21 -68 -47 -73 -37 -3 4 -8 38 -12 76 -11 104 -51 258 -95 364 -22 52 -40 100 -40 106 1 18 46 -39 89 -112z m195 4 c30 -44 70 -115 90 -155 l36 -75 -22 -23 c-12 -13 -24 -23 -28 -23 -3 0 -17 36 -29 80 -13 43 -49 131 -80 195 -63 126 -52 127 33 1z m284 9 c5 -5 -49 -95 -56 -95 -9 1 -92 146 -92 160 0 8 131 -50 148 -65z m-697 14 l21 -41 -74 7 c-104 10 -112 18 -52 48 68 36 80 34 105 -14z m853 -138 c35 -37 33 -50 -33 -156 -136 -220 -333 -387 -574 -485 -173 -70 -206 -75 -457 -74 -167 0 -236 4 -269 15 -86 28 -61 36 136 42 208 6 309 23 454 77 94 34 230 108 318 173 130 96 323 307 369 404 9 18 19 33 22 33 3 0 19 -13 34 -29z m-907 -41 c129 -18 139 -23 153 -81 7 -28 10 -52 7 -55 -3 -3 -41 6 -85 20 -101 32 -214 54 -321 64 l-83 7 26 28 c24 26 29 27 125 27 55 0 135 -5 178 -10z m1063 -186 c11 -25 20 -49 20 -54 0 -5 -28 -51 -62 -102 -209 -312 -524 -506 -891 -549 -57 -6 -138 -9 -186 -5 -95 7 -277 46 -331 70 -34 16 -33 16 45 8 143 -13 363 -7 455 12 245 51 482 172 651 333 93 89 198 215 237 285 15 26 31 48 35 48 4 0 17 -21 27 -46z m-1263 -15 c137 -16 345 -80 373 -114 6 -8 10 -26 8 -42 -2 -21 -10 -29 -35 -37 -28 -7 -49 -2 -136 32 -107 43 -252 82 -374 102 -40 7 -73 14 -73 16 0 3 7 18 15 35 18 33 14 33 222 8z m-121 -209 c32 -6 92 -21 133 -32 55 -16 69 -24 55 -29 -27 -11 -326 -11 -343 0 -9 6 -11 18 -6 40 6 29 9 31 54 31 26 0 74 -5 107 -10z m1452 -185 c-2 -61 -8 -116 -12 -123 -5 -9 -17 7 -36 46 -46 97 -46 95 2 163 51 73 52 71 46 -86z m-163 -177 c48 -103 55 -169 25 -217 -12 -18 -24 -30 -27 -27 -6 5 -38 80 -101 230 l-16 38 35 29 c18 16 37 29 40 29 3 0 23 -37 44 -82z m-355 -134 c0 -4 -25 -56 -55 -118 -54 -108 -117 -201 -188 -278 -32 -35 -39 -38 -91 -38 l-56 0 64 84 c36 47 89 127 119 178 31 51 66 103 79 114 41 38 128 77 128 58z m183 -80 c13 -34 30 -85 38 -114 13 -51 13 -53 -10 -71 -13 -11 -29 -19 -35 -19 -14 0 -66 120 -66 152 0 18 9 59 26 117 7 21 19 4 47 -65z m-946 -40 l112 -17 -31 -43 c-17 -23 -43 -55 -59 -70 l-29 -28 -85 84 c-47 47 -85 89 -85 93 0 5 15 7 33 3 17 -3 82 -13 144 -22z m403 -32 c-12 -21 -59 -84 -105 -140 l-84 -101 -41 16 c-22 9 -40 20 -40 24 0 5 13 23 28 41 16 18 54 68 85 110 59 79 65 83 145 87 l33 1 -21 -38z m390 -199 c0 -16 -9 -24 -36 -33 -19 -7 -37 -10 -40 -8 -2 3 10 24 28 47 32 44 48 42 48 -6z m286 -795 c36 -20 77 -71 104 -130 18 -40 20 -70 20 -476 l0 -433 -25 -48 c-13 -27 -38 -60 -55 -75 -67 -56 -83 -57 -757 -59 l-618 -2 -45 24 c-116 61 -147 102 -160 208 -11 86 -15 792 -4 848 6 36 69 116 108 137 31 18 300 25 886 24 464 -1 518 -3 546 -18z" fill="#6dc600"/>
<path d="M2350 5996 c-65 -14 -122 -42 -209 -103 -89 -64 -130 -101 -157 -145 l-24 -38 0 -889 c0 -796 2 -890 16 -902 20 -16 501 -26 524 -10 13 9 15 139 18 1049 l3 1039 -38 7 c-49 8 -67 7 -133 -8z" fill="#6dc600"/>
</g>
</svg>